<?xml version='1.0' encoding='utf-8'?>
<svg xmlns="http://www.w3.org/2000/svg" version="1.1" id="svg10" width="223" height="382" viewBox="0 0 223 382"> <metadata id="metadata16"> </metadata> <defs id="defs14"> <marker style="overflow:visible" id="marker5646" refX="0.0" refY="0.0" orient="auto"> <path transform="scale(0.8) translate(12.5,0)" style="fill-rule:evenodd;stroke:#000000;stroke-width:1pt;stroke-opacity:1;fill:#000000;fill-opacity:1" d="M 0.0,0.0 L 5.0,-5.0 L -12.5,0.0 L 5.0,5.0 L 0.0,0.0 z " id="path5644"/> </marker> <marker style="overflow:visible" id="marker5570" refX="0.0" refY="0.0" orient="auto"> <path transform="scale(0.8) translate(12.5,0)" style="fill-rule:evenodd;stroke:#000000;stroke-width:1pt;stroke-opacity:1;fill:#000000;fill-opacity:1" d="M 0.0,0.0 L 5.0,-5.0 L -12.5,0.0 L 5.0,5.0 L 0.0,0.0 z " id="path5568"/> </marker> <marker style="overflow:visible" id="marker5500" refX="0.0" refY="0.0" orient="auto"> <path transform="scale(0.8) translate(12.5,0)" style="fill-rule:evenodd;stroke:#000000;stroke-width:1pt;stroke-opacity:1;fill:#000000;fill-opacity:1" d="M 0.0,0.0 L 5.0,-5.0 L -12.5,0.0 L 5.0,5.0 L 0.0,0.0 z " id="path5498"/> </marker> <marker style="overflow:visible" id="marker5436" refX="0.0" refY="0.0" orient="auto"> <path transform="scale(0.8) translate(12.5,0)" style="fill-rule:evenodd;stroke:#000000;stroke-width:1pt;stroke-opacity:1;fill:#000000;fill-opacity:1" d="M 0.0,0.0 L 5.0,-5.0 L -12.5,0.0 L 5.0,5.0 L 0.0,0.0 z " id="path5434"/> </marker> <marker style="overflow:visible" id="marker5378" refX="0.0" refY="0.0" orient="auto"> <path transform="scale(0.8) translate(12.5,0)" style="fill-rule:evenodd;stroke:#000000;stroke-width:1pt;stroke-opacity:1;fill:#000000;fill-opacity:1" d="M 0.0,0.0 L 5.0,-5.0 L -12.5,0.0 L 5.0,5.0 L 0.0,0.0 z " id="path5376"/> </marker> <marker style="overflow:visible" id="marker5326" refX="0.0" refY="0.0" orient="auto"> <path transform="scale(0.8) translate(12.5,0)" style="fill-rule:evenodd;stroke:#000000;stroke-width:1pt;stroke-opacity:1;fill:#000000;fill-opacity:1" d="M 0.0,0.0 L 5.0,-5.0 L -12.5,0.0 L 5.0,5.0 L 0.0,0.0 z " id="path5324"/> </marker> <marker style="overflow:visible" id="marker5280" refX="0.0" refY="0.0" orient="auto"> <path transform="scale(0.8) translate(12.5,0)" style="fill-rule:evenodd;stroke:#000000;stroke-width:1pt;stroke-opacity:1;fill:#000000;fill-opacity:1" d="M 0.0,0.0 L 5.0,-5.0 L -12.5,0.0 L 5.0,5.0 L 0.0,0.0 z " id="path5278"/> </marker> <marker style="overflow:visible" id="marker5240" refX="0.0" refY="0.0" orient="auto"> <path transform="scale(0.8) translate(12.5,0)" style="fill-rule:evenodd;stroke:#000000;stroke-width:1pt;stroke-opacity:1;fill:#000000;fill-opacity:1" d="M 0.0,0.0 L 5.0,-5.0 L -12.5,0.0 L 5.0,5.0 L 0.0,0.0 z " id="path5238"/> </marker> <marker style="overflow:visible" id="marker5206" refX="0.0" refY="0.0" orient="auto"> <path transform="scale(0.8) translate(12.5,0)" style="fill-rule:evenodd;stroke:#000000;stroke-width:1pt;stroke-opacity:1;fill:#000000;fill-opacity:1" d="M 0.0,0.0 L 5.0,-5.0 L -12.5,0.0 L 5.0,5.0 L 0.0,0.0 z " id="path5204"/> </marker> <marker style="overflow:visible" id="marker5178" refX="0.0" refY="0.0" orient="auto"> <path transform="scale(0.8) translate(12.5,0)" style="fill-rule:evenodd;stroke:#000000;stroke-width:1pt;stroke-opacity:1;fill:#000000;fill-opacity:1" d="M 0.0,0.0 L 5.0,-5.0 L -12.5,0.0 L 5.0,5.0 L 0.0,0.0 z " id="path5176"/> </marker> <marker style="overflow:visible" id="marker5156" refX="0.0" refY="0.0" orient="auto"> <path transform="scale(0.8) translate(12.5,0)" style="fill-rule:evenodd;stroke:#000000;stroke-width:1pt;stroke-opacity:1;fill:#000000;fill-opacity:1" d="M 0.0,0.0 L 5.0,-5.0 L -12.5,0.0 L 5.0,5.0 L 0.0,0.0 z " id="path5154"/> </marker> </defs> <g id="layer3" style="display:inline;opacity:1"> <path id="path26-6-3" style="fill:#ffffff;fill-opacity:1;stroke:#000000;stroke-width:1;stroke-linecap:round;stroke-linejoin:round;stroke-miterlimit:4;stroke-dasharray:none;stroke-opacity:1" d="M 202.73138,315.5833 A 86.114182,64.34906 0 0 1 116.82239,375.94555 86.114182,64.34906 0 0 1 30.838848,315.64261"/> <path id="path26-6" style="fill:#ffffff;fill-opacity:1;stroke:#000000;stroke-width:1;stroke-linecap:round;stroke-linejoin:round;stroke-miterlimit:4;stroke-dasharray:none;stroke-opacity:1" d="M 202.25276,273.07884 A 90.759544,63.442101 0 0 1 170.98746,345.4 90.759544,63.442101 0 0 1 62.904938,345.52979 90.759544,63.442101 0 0 1 31.284338,273.28416"/> <path id="path26" style="fill:#ffffff;fill-opacity:1;stroke:#000000;stroke-width:1;stroke-linecap:round;stroke-linejoin:round;stroke-miterlimit:4;stroke-dasharray:none;stroke-opacity:1" d="m 178.20738,243.23988 a 86.182304,53.090443 0 0 1 -0.68951,74.95339 86.182304,53.090443 0 0 1 -121.674306,-0.17214 86.182304,53.090443 0 0 1 -0.130639,-74.95455"/> <path id="path26-8" style="opacity:0.95999995;fill:#ffffff;fill-opacity:1;stroke:#000000;stroke-width:1;stroke-linecap:round;stroke-linejoin:round;stroke-miterlimit:4;stroke-dasharray:none;stroke-opacity:1" d="m 167.03897,217.88013 a 61.009602,39.224003 0 0 1 -9.86217,51.69114 61.009602,39.224003 0 0 1 -81.003365,-0.1664 61.009602,39.224003 0 0 1 -9.348161,-51.73061"/> <path id="path4632" style="fill:#ffffff;stroke:#000000;stroke-width:1;stroke-linecap:round;stroke-linejoin:round;stroke-miterlimit:4;stroke-dasharray:none;stroke-opacity:1" d="m 159.6419,119.21007 7.10962,98.53207 c -7.08451,10.37783 -27.30838,17.30828 -50.09614,17.25553 -22.787762,-0.0528 -42.866492,-7.07652 -49.698822,-17.36664 l 7.781461,-97.84205"/> <path id="path4634-2-1" style="display:inline;fill:#ffffff;fill-opacity:1;stroke:#000000;stroke-width:1.00801384;stroke-linecap:round;stroke-linejoin:round;stroke-miterlimit:4;stroke-dasharray:none;stroke-opacity:1" d="m 70.564289,111.80595 c -1.165527,11.0758 27.201577,18.28956 46.196061,18.50278 18.99449,-0.0573 47.36158,-7.27103 46.19606,-19.34683"/> <path id="path4634-9" style="display:inline;fill:#ffffff;fill-opacity:1;stroke:#000000;stroke-width:0.9191491;stroke-linecap:round;stroke-linejoin:round;stroke-miterlimit:4;stroke-dasharray:none;stroke-opacity:1" d="m 171.65708,99.166392 c -10.54982,4.108298 -1.18811,7.425398 -10.91621,12.399748 -10.19471,5.21291 -32.15224,9.22588 -44.39067,9.24478 -12.23843,-0.0323 -34.020861,-3.21049 -44.215576,-8.4234 -9.728115,-4.97433 -0.554733,-9.03974 -11.104551,-13.148051"/> <path id="rect4643" style="fill:#ffffff;fill-opacity:1;stroke:#000000;stroke-width:0.99768788;stroke-linecap:round;stroke-miterlimit:4;stroke-dasharray:none;stroke-opacity:1" d="m 184.61673,58.210443 -0.11026,27.654719 C 182.3509,99.19121 151.72347,109.64657 114.98979,109.44256 78.256115,109.23855 48.507323,98.447875 47.597138,85.485225 l 0.02263,-27.274782"/> <path style="fill:#ffffff;fill-opacity:1;stroke:#000000;stroke-width:0.99641126;stroke-linecap:round;stroke-linejoin:round;stroke-miterlimit:4;stroke-dasharray:none;stroke-opacity:1" id="path4651" d="M 182.70336,67.505414 A 68.478462,31.551508 0 0 1 100.2258,90.866924 68.478462,31.551508 0 0 1 49.476563,52.878389 68.478462,31.551508 0 0 1 131.89737,29.474396 68.478462,31.551508 0 0 1 182.73878,67.436759"/> <path style="fill:#ffffff;fill-opacity:1;stroke:#000000;stroke-width:1;stroke-linecap:round;stroke-linejoin:round;stroke-miterlimit:4;stroke-dasharray:none;stroke-opacity:1" id="path4655" d="M 166.33531,56.196706 A 49.789818,19.01038 0 0 1 114.2961,74.306978 49.789818,19.01038 0 0 1 66.862233,54.438276 49.789818,19.01038 0 0 1 118.8987,36.326852 49.789818,19.01038 0 0 1 166.33558,56.194504"/> </g> <g id="layer4" style="display:inline;opacity:1"> <path id="rect6146" style="display:inline;opacity:0.97000002;fill:#ffffff;fill-opacity:1;stroke:#000000;stroke-width:1;stroke-linecap:round;stroke-linejoin:round;stroke-miterlimit:4;stroke-dasharray:none;stroke-dashoffset:0;stroke-opacity:1;paint-order:normal" d="m 76.112122,26.713526 c 5.553899,-3.506851 26.512608,-8.555435 31.111058,-7.325143 l -0.0715,17.414796 C 91.909028,37.52193 83.470802,40.674476 75.885352,44.132042 Z m -11.881427,-5.728245 11.775246,5.833631 -0.0884,17.198098 -11.863637,-4.242641 z m 0.07715,-0.163043 c 15.055307,-7.435999 26.251198,-9.067085 40.051175,-10.16466 l 2.74003,8.518299 c -10.316966,0.21601 -22.261391,3.337787 -31.30072,7.689786 z"/> <path id="rect6195" style="opacity:0.97000002;fill:#ffffff;fill-opacity:1;stroke:#000000;stroke-width:1;stroke-linecap:round;stroke-linejoin:round;stroke-miterlimit:4;stroke-dasharray:none;stroke-dashoffset:0;stroke-opacity:1;paint-order:normal" d="m 67.582066,42.549846 0.0307,3.222196 0.0391,1.655091 C 64.8843,42.926363 63.667873,38.296262 67.467404,33.468705 Z M 51.545397,70.664027 51.432944,53.756725 75.295985,53.519953 75.189882,66.353519 Z M 67.504701,33.556474 c -3.963657,4.71777 -4.297933,13.598845 7.940272,19.960091 L 51.274885,53.701132 C 46.243403,46.86212 44.221948,39.373613 52.008668,30.45899 Z M 47.637985,59.65465 47.046037,44.616562 c 0,0 0.376346,3.946435 3.918127,8.609571 l 0.586505,17.386486 C 48.959021,67.374638 47.621536,65.638572 47.637985,59.65465 Z"/> <path id="rect6118" style="opacity:0.97000002;fill:#ffffff;fill-opacity:1;stroke:#000000;stroke-width:1;stroke-linecap:round;stroke-linejoin:round;stroke-miterlimit:4;stroke-dasharray:none;stroke-dashoffset:0;stroke-opacity:1;paint-order:normal" d="m 87.612808,58.776872 c 5.364469,1.890304 17.714932,3.600642 25.328722,3.354315 L 103.71989,73.80622 C 90.928466,73.217981 73.133448,68.700467 62.720988,62.799492 Z m 16.210632,14.920161 9.33188,-11.251209 -0.2006,11.811761 -9.16376,16.786611 z M 62.759553,62.827442 c 12.048054,6.375021 28.590262,10.533431 41.075977,10.925699 L 103.774,91.068486 C 92.32278,91.0549 68.049752,84.484975 63.132359,79.887807 Z"/> <path id="rect6146-4" style="display:inline;opacity:0.97000002;fill:#ffffff;fill-opacity:1;stroke:#000000;stroke-width:1;stroke-linecap:round;stroke-linejoin:round;stroke-miterlimit:4;stroke-dasharray:none;stroke-dashoffset:0;stroke-opacity:1;paint-order:normal" d="m 155.90501,26.924518 c -5.55389,-3.506851 -26.5126,-8.555435 -31.11105,-7.325143 l 0.0715,17.414796 c 15.24265,0.718751 23.68087,3.871297 31.26632,7.328863 z m 11.88143,-5.728245 -11.77524,5.833631 0.0884,17.198098 11.86363,-4.242641 z M 167.7093,21.03323 C 152.65399,13.597231 141.4581,11.966145 127.65813,10.868571 l -2.74004,8.518298 c 10.31697,0.21601 22.26139,3.337787 31.30072,7.689786 z"/> <path id="rect6195-5" style="display:inline;opacity:0.97000002;fill:#ffffff;fill-opacity:1;stroke:#000000;stroke-width:1;stroke-linecap:round;stroke-linejoin:round;stroke-miterlimit:4;stroke-dasharray:none;stroke-dashoffset:0;stroke-opacity:1;paint-order:normal" d="m 164.43507,42.760838 -0.0307,3.222196 -0.0391,1.655091 c 2.76757,-4.50077 3.98399,-9.130871 0.18446,-13.958428 z m 16.03667,28.114181 0.11245,-16.907302 -23.86304,-0.236772 0.1061,12.833566 z m -15.9593,-37.107553 c 3.96365,4.71777 4.29793,13.598845 -7.94028,19.960091 l 24.17009,0.184567 c 5.03148,-6.839012 7.05294,-14.327519 -0.73378,-23.242142 z m 19.86671,26.098176 0.59195,-15.038088 c 0,0 -0.37635,3.946435 -3.91813,8.609571 l -0.5865,17.386486 c 2.59165,-3.237981 3.92913,-4.974047 3.91268,-10.957969 z"/> <path id="rect6118-4" style="display:inline;opacity:0.97000002;fill:#ffffff;fill-opacity:1;stroke:#000000;stroke-width:1;stroke-linecap:round;stroke-linejoin:round;stroke-miterlimit:4;stroke-dasharray:none;stroke-dashoffset:0;stroke-opacity:1;paint-order:normal" d="m 144.40433,58.987864 c -5.36447,1.890304 -17.71493,3.600642 -25.32872,3.354315 l 9.22164,11.675033 c 12.79142,-0.588239 30.58644,-5.105753 40.9989,-11.006728 z m -16.21063,14.920161 -9.33188,-11.251209 0.2006,11.811761 9.16376,16.786611 z m 41.06388,-10.869591 c -12.04805,6.375021 -28.59026,10.533431 -41.07597,10.925699 l 0.0615,17.315345 c 11.45122,-0.01359 35.72424,-6.583511 40.64164,-11.180679 z"/> </g> </svg>